<?xml version="1.0" standalone="no"?>
<!DOCTYPE svg PUBLIC "-//W3C//DTD SVG 20010904//EN"
 "http://www.w3.org/TR/2001/REC-SVG-20010904/DTD/svg10.dtd">
<svg version="1.0" xmlns="http://www.w3.org/2000/svg"
 width="548.000000pt" height="548.000000pt" viewBox="0 0 548.000000 548.000000"
 preserveAspectRatio="xMidYMid meet">
<metadata>
Created by potrace 1.14, written by Peter Selinger 2001-2017
</metadata>
<g transform="translate(0.000000,548.000000) scale(0.100000,-0.100000)"
fill="#000000" stroke="none">
<path d="M2695 5236 c-74 -44 -410 -238 -455 -264 -25 -14 -62 -36 -82 -49
-21 -12 -40 -23 -43 -23 -3 0 -22 -11 -43 -23 -20 -13 -57 -35 -82 -49 -25
-14 -128 -74 -230 -133 -102 -60 -198 -115 -215 -123 -16 -8 -37 -20 -45 -27
-8 -7 -40 -26 -70 -42 -52 -29 -197 -112 -585 -338 -93 -54 -191 -110 -217
-124 -40 -22 -48 -31 -48 -56 -1 -41 -1 -2333 0 -2421 0 -59 3 -73 18 -77 17
-6 93 -48 190 -105 29 -18 57 -32 62 -32 4 0 10 -3 12 -8 2 -4 59 -39 128 -79
69 -39 166 -95 215 -123 50 -29 109 -63 132 -76 23 -13 92 -53 153 -89 61 -36
115 -65 121 -65 5 0 9 -4 9 -10 0 -5 4 -10 10 -10 5 0 70 -36 146 -80 75 -44
138 -80 141 -80 2 0 24 -13 48 -30 24 -16 46 -30 49 -30 2 0 44 -23 93 -51 48
-28 102 -59 118 -69 17 -9 54 -31 83 -49 29 -17 57 -31 62 -31 6 0 10 -4 10
-10 0 -5 4 -10 9 -10 11 0 150 -78 172 -97 8 -7 23 -13 31 -13 9 0 18 -4 20
-8 7 -19 127 -80 147 -75 12 3 21 8 21 12 0 3 20 15 45 26 25 11 45 23 45 27
0 5 5 8 10 8 6 0 43 20 83 44 39 24 92 54 117 68 25 14 117 67 205 118 88 52
173 101 190 109 16 9 35 22 43 28 7 7 18 13 23 13 7 0 72 37 134 78 11 7 32
18 48 25 15 6 27 15 27 19 0 4 4 8 9 8 13 0 205 112 213 124 4 6 8 8 8 4 0 -3
37 15 83 42 45 27 143 84 217 127 74 43 143 82 152 88 9 5 29 17 45 26 47 26
106 61 138 80 17 10 44 25 60 34 17 8 75 42 130 74 l100 60 2 1258 3 1258
-128 73 c-70 39 -138 79 -152 87 -154 90 -232 135 -235 135 -2 0 -40 23 -85
50 -45 28 -83 50 -84 50 -2 0 -41 22 -87 48 -173 100 -669 387 -789 457 -69
40 -141 82 -161 93 -72 40 -84 47 -89 52 -6 6 -86 50 -117 65 -13 5 -23 13
-23 18 0 4 -5 7 -10 7 -6 0 -52 25 -102 55 -50 30 -96 55 -102 55 -6 -1 -29
-11 -51 -24z m132 -1272 c149 -89 188 -111 233 -136 25 -14 96 -55 159 -92 62
-36 115 -66 116 -66 2 0 33 -19 71 -41 37 -23 88 -53 113 -67 25 -14 58 -32
73 -41 100 -60 192 -111 198 -111 4 0 14 -8 24 -18 15 -17 16 -73 14 -641 l-3
-622 -30 -17 c-16 -9 -32 -19 -35 -22 -3 -3 -16 -11 -30 -18 -14 -6 -38 -20
-55 -30 -16 -9 -64 -37 -105 -61 -41 -24 -158 -92 -260 -151 -102 -59 -201
-116 -220 -127 -19 -11 -59 -34 -88 -52 -29 -17 -57 -31 -62 -31 -6 0 -10 -4
-10 -8 0 -4 -12 -13 -27 -20 -16 -6 -47 -23 -70 -37 -24 -14 -43 -23 -43 -20
0 3 -9 -4 -20 -15 -19 -19 -20 -19 -82 16 -66 38 -152 88 -178 104 -50 31
-190 110 -195 110 -3 0 -11 5 -18 10 -18 16 -219 130 -229 130 -4 0 -8 5 -8
10 0 6 -4 10 -10 10 -5 0 -69 35 -142 78 -73 43 -140 81 -148 85 -8 4 -33 18
-55 31 l-40 24 -1 626 c0 429 3 629 10 635 6 5 27 18 46 29 19 11 64 37 100
57 36 21 101 59 145 84 44 25 89 51 100 58 11 7 29 17 40 22 11 6 38 22 60 36
22 14 49 29 60 35 11 5 43 23 70 40 28 17 69 40 93 51 23 12 42 25 42 30 0 5
7 9 15 9 8 0 38 15 67 34 29 18 80 48 113 66 33 18 74 41 90 51 17 10 31 18
32 18 1 1 37 -20 80 -45z"/>
<path d="M2755 3931 c-3 -5 -2 -12 3 -15 5 -3 9 1 9 9 0 17 -3 19 -12 6z"/>
</g>
</svg>
